<svg xmlns="http://www.w3.org/2000/svg" width="220" height="118" viewBox="0 0 220 118">
  <metadata><?xpacket begin="﻿" id="W5M0MpCehiHzreSzNTczkc9d"?>
<x:xmpmeta xmlns:x="adobe:ns:meta/" x:xmptk="Adobe XMP Core 5.6-c138 79.159824, 2016/09/14-01:09:01        ">
   <rdf:RDF xmlns:rdf="http://www.w3.org/1999/02/22-rdf-syntax-ns#">
      <rdf:Description rdf:about=""/>
   </rdf:RDF>
</x:xmpmeta>
                                                                                                    
                                                                                                    
                                                                                                    
                                                                                                    
                                                                                                    
                                                                                                    
                                                                                                    
                                                                                                    
                                                                                                    
                                                                                                    
                                                                                                    
                                                                                                    
                                                                                                    
                                                                                                    
                                                                                                    
                                                                                                    
                                                                                                    
                                                                                                    
                                                                                                    
                                                                                                    
                           
<?xpacket end="w"?></metadata>
<defs>
    <style>
      .cls-1 {
        fill: #f39100;
      }

      .cls-1, .cls-2 {
        fill-rule: evenodd;
      }

      .cls-2 {
        fill: #38aa34;
      }
    </style>
  </defs>
  <path class="cls-1" d="M181.373,61.2L180.7,65.393s-0.259,2.442-2.2,2.293a6.668,6.668,0,0,1-2.823-.853l1.231-7.882a4.979,4.979,0,0,0,.032-0.645c1.646-.412,2.79-0.61,3.837.166s0.591,2.73.591,2.73h0Zm4.709,0.163c0.311-2.042-.221-4.86-2.626-6.241a8.04,8.04,0,0,0-7.468-.146,2.153,2.153,0,0,0-3.2-.889,1.749,1.749,0,0,0-.634,2.519,3.086,3.086,0,0,1,.156,1.4S169.7,74.757,169.664,75A2.1,2.1,0,0,0,171.63,77.6a2.072,2.072,0,0,0,2.633-1.678l0.861-5.511s1.029,1.183,4.19,1.246c5.188,0.2,5.955-5.215,5.955-5.215S185.771,63.406,186.082,61.364Zm15.011-3.7c-2.405-.976-3.189.917-3.189,0.917s-2.877,5.715-4.182,8.936a29.613,29.613,0,0,0-.369-3.51l-1.3-6.248a2.3,2.3,0,0,0-2.885-1.911c-2.182.473-1.539,2.9-1.539,2.9l3,13.63s-0.614,1.158-1.344,2.238a2.378,2.378,0,0,1-2.4,1.028c-0.9.03-2.4,0.381-2.391,1.669s0.552,2.482,3.881,2.462c3.706-.022,5.754-4.36,5.754-4.36l7.483-13.986S203.5,58.637,201.093,57.661Zm-8.525,23.326c-11.232,5.908-25.619,3.432-30.264-4.305,0,0-6.041-9.993,3.814-20.043s28.106-12.04,35.787-5.019,4.851,21.906-9.337,29.368h0ZM26.739,82.879c-3.257.562-6.014,0.343-6.16-.49s2.376-1.966,5.633-2.528,6.013-.342,6.159.491S30,82.316,26.739,82.879h0ZM137.871,47.387c2.422-.67,4.431-1.326,6.359-0.389s1.871,2.939,1.7,5.02-0.514,6.119-.514,6.119-0.119,4.507-3.406,4.507a11.06,11.06,0,0,1-5.02-1.048l0.905-12.825a4.78,4.78,0,0,0-.022-1.384h0ZM205.314,50.6C194.7,36.622,151.875,46.233,157.053,75.97c-6.633-.765-13.909-1.277-21.076-1.621,0.164-1.8.391-4.353,0.589-6.791,6.823,3.156,10.978,1.177,13.732-1.062s3.174-8,3.174-8,0.344-3.581.664-7.039-0.641-8.833-6.723-10.638-11.868,1.06-11.868,1.06-0.346-.957-2.388-1.549c-4.19-.7-5.288,3.445-4.2,4.482a3.615,3.615,0,0,1,.822,2.855L128.3,74.04C111.96,73.5,97.7,73.726,95.149,73.681c-0.334-.838-0.792-1.229-2.172-1.437a101.573,101.573,0,0,0-11.185-.163A435.03,435.03,0,0,0,24.472,77.6c-4.7.762-8.431,1.979-8.9,5.187-0.222,1.539-.185,7.8,6.778,7.934a11.61,11.61,0,0,0,4.007-.6c15.165-3.9,47.3-9.195,64.115-9.59,4.764-.112,5.71-0.1,5.887-1.866,34.231-.382,57.473,1.8,62.366,2.657l0.059,0.185-0.186-.042a32.714,32.714,0,0,0,27.509,11.8c10.332-.728,23.248-8.31,24.484-24.409C211.354,58.985,207.984,53.209,205.314,50.6Zm-185.33,17.3c0.185,1.381,1.21,4.165,4.734,3.462a3.63,3.63,0,0,0,3.212-3.837l-2.107-18.7,8.359-.87s1.383,13.882,1.809,18.173,4.772,3.565,4.772,3.565a3.732,3.732,0,0,0,3.193-4.1s-1.449-16.168-1.826-20.492a3.931,3.931,0,0,0-4.471-3.807s-12.9,1.3-17.091,1.8-3.056,5.09-3.056,5.09ZM58.476,45.722c5.013-.15,4.86,3.4,4.894,4.052s0.407,7.8.407,7.8,0.526,3.407-3.882,4-5.331-2.3-5.331-4.227l-0.493-7.4s-0.609-4.07,4.4-4.221h0ZM46.554,57.829c0.212,2.677,1.564,11.743,14.171,10.283,12.464-1.443,11.039-11.474,11.039-11.474s-0.276-6.909-.33-8.126C71.367,46.958,70.181,38,57.424,39.195c-12.975,1.216-11.442,11.41-11.442,11.41Zm40.3-13.423s3.1-.181,3.337,2.45-1.85,3.039-3,3.062-4.234.072-4.234,0.072l-0.109-5.528,4.008-.056h0Zm0.781,16.566c-1.22.025-4.488,0.076-4.488,0.076L83.034,55.19l4.248-.059s3.284-.191,3.537,2.6-1.961,3.22-3.182,3.244h0ZM75.263,63c-0.015,4.675,5.359,3.986,5.359,3.986l8.608-.273c7.419-.6,9.587-3.667,9.588-8.119,0-5.175-5.923-6.135-5.923-6.135s5.879-1.435,5.378-6.737c-0.763-8.088-12.769-7.1-12.769-7.1s-2.26-.034-6.728.127c-4.874.176-4.156,4.131-4.156,4.131Zm32.676-4.906c0.671-4.587,8.191-2.212,8.191-2.212l-0.141,4.016c-1.533,1.392-8.72,2.783-8.05-1.8h0Zm-0.2,9.07c4.817,0.732,7.3-.169,10.14-2.055a5.8,5.8,0,0,0,5.667,2.566c2.214-.226,3.185-0.819,3.356-2.51s-0.8-2.166-2.054-2.7a1.66,1.66,0,0,1-.882-1.944s0.48-10.1.489-11.873-0.3-6.545-4.582-8.656c-6.65-3.276-13.9-.763-14.407-0.576s-3.818,1.676-2.75,4.648c1.023,2.845,4.53,1.843,4.53,1.843a13.363,13.363,0,0,1,5.609-1.044c3.987,0.428,3.526,3.594,3.464,5.718-12.52-2.914-16.348,2.531-16.347,7.773C99.968,63.184,102.919,66.426,107.735,67.158Zm58.426-2.892a2.649,2.649,0,1,0,2.849,2.642A2.75,2.75,0,0,0,166.161,64.266Z"/>
  <path id="Shape_1_copy" data-name="Shape 1 copy" class="cls-2" d="M182.986,29.052s-13.6-3.029-11.855,14.509c16.787-2.37,11.855-14.509,11.855-14.509h0ZM168.352,44.436s1.636-21.932-20.22-20.65C148.619,44.433,168.352,44.436,168.352,44.436Z"/>
</svg>
